<svg width="80" height="80" viewBox="0 0 80 80" fill="none" xmlns="http://www.w3.org/2000/svg">
<path d="M73.3331 45.3333C74.0705 45.3333 74.6664 44.736 74.6664 44V38.6667C74.6664 37.9308 74.0705 37.3335 73.3331 37.3335H66.6664V36C66.6664 35.2641 66.0705 34.6667 65.3331 34.6667C64.5958 34.6667 63.9998 35.2641 63.9998 36V37.3333H26.6666V36C26.6666 35.2641 26.0692 34.6667 25.3333 34.6667C24.5973 34.6667 24 35.2641 24 36V37.3333H17.3333C16.5973 37.3333 16 37.9307 16 38.6666V44C16 44.736 16.5973 45.3333 17.3333 45.3333H25.3333H65.3333H73.3331ZM18.6666 42.6667V40H71.9998V42.6667H18.6666Z" fill="#D4C17F"/>
<path d="M47.9997 29.3333C45.8438 29.3333 44.4503 30.9718 44.2983 31.16C43.8369 31.7267 43.9224 32.5547 44.4863 33.0214C45.0516 33.4893 45.8877 33.4081 46.361 32.8508C46.3663 32.8414 47.0889 32.0001 47.9996 32.0001C48.9102 32.0001 49.6316 32.8415 49.6316 32.8415C49.8956 33.1656 50.2795 33.3336 50.6675 33.3336C50.9635 33.3336 51.2596 33.2362 51.5075 33.035C52.0796 32.5709 52.1649 31.7309 51.7008 31.1603C51.5491 30.972 50.1556 29.3333 47.9997 29.3333Z" fill="#D4C17F"/>
<path d="M73.3331 56C74.0705 56 74.6664 55.4027 74.6664 54.6667V49.3335C74.6664 48.5975 74.0705 48.0002 73.3331 48.0002H66.6664V46.6669C66.6664 45.931 66.0705 45.3336 65.3331 45.3336C64.5958 45.3336 63.9998 45.931 63.9998 46.6669V48.0002H26.6666V46.6669C26.6666 45.931 26.0692 45.3336 25.3333 45.3336C24.5973 45.3336 24 45.931 24 46.6669V48.0002H17.3333C16.5973 48.0002 16 48.5975 16 49.3335V54.6667C16 55.4027 16.5973 56 17.3333 56H25.3333H65.3333H73.3331ZM18.6666 53.3333V50.6666H71.9998V53.3333H18.6666Z" fill="#D4C17F"/>
<path d="M54.9649 26.1732C55.229 26.4985 55.6129 26.6665 56.0008 26.6665C56.2968 26.6665 56.5929 26.5692 56.8408 26.3679C57.4129 25.9038 57.4982 25.0638 57.0341 24.4932C56.8821 24.3053 55.4888 22.6665 53.3327 22.6665C51.1766 22.6665 49.7833 24.3051 49.6313 24.4932C49.1699 25.0599 49.2554 25.8879 49.8193 26.3546C50.3846 26.824 51.2207 26.7413 51.6926 26.184C51.6993 26.1746 52.4219 25.3334 53.3326 25.3334C54.2437 25.3332 54.9649 26.1732 54.9649 26.1732Z" fill="#D4C17F"/>
<path d="M1.33971 17.4667C1.40768 18.1481 1.98112 18.6667 2.66643 18.6667H10.6664C11.3517 18.6667 11.925 18.1481 11.9931 17.4667L13.3264 4.13344C13.3638 3.7575 13.2411 3.38547 12.9878 3.10547C12.7358 2.82672 12.3772 2.66688 11.9999 2.66688H7.99971V1.33328C7.99971 0.597344 7.40237 0 6.66643 0C5.93049 0 5.33315 0.597344 5.33315 1.33328V2.66656H1.33315C0.955803 2.66656 0.597209 2.82656 0.345178 3.10516C0.0918969 3.38516 -0.0307593 3.75719 0.00658443 4.13312L1.33971 17.4667ZM10.5264 5.33328L9.45971 16H3.87299L2.80627 5.33328H10.5264Z" fill="#D4C17F"/>
<path d="M37.333 30.6667C37.333 32.1573 37.9424 33.5441 39.0489 34.5694C39.3049 34.8067 39.6304 34.9253 39.9557 34.9253C40.313 34.9253 40.6704 34.7813 40.933 34.4986C41.433 33.9586 41.4024 33.1145 40.8624 32.6133C40.305 32.0986 39.9997 31.4066 39.9997 30.6666C39.9997 29.5625 40.7024 28.5613 41.7504 28.1759C42.185 28.0159 42.505 27.6413 42.5957 27.1866C42.6877 26.7319 42.5343 26.2625 42.1957 25.9466C41.6383 25.4319 41.333 24.7398 41.333 23.9998C41.333 22.6131 42.425 21.4531 43.8183 21.3572C44.3304 21.3225 44.7757 20.9986 44.9663 20.5225C45.1557 20.0466 45.0569 19.5039 44.7104 19.1266C44.2518 18.6266 43.9997 17.9892 43.9997 17.3333C43.9997 15.9466 45.0918 14.7866 46.485 14.6906C46.9971 14.6559 47.4424 14.332 47.633 13.8559C47.8224 13.38 47.7236 12.8373 47.3771 12.46C46.9197 11.96 46.6664 11.3227 46.6664 10.6667C46.6664 9.47469 47.4785 8.42266 48.6397 8.10813C49.0091 8.00813 49.3157 7.75609 49.485 7.41609C49.6557 7.07609 49.6718 6.6775 49.5291 6.32547C49.3997 5.99875 49.3332 5.66547 49.3332 5.33344C49.3332 3.86281 50.5291 2.66672 51.9999 2.66672C53.4705 2.66672 54.6666 3.86266 54.6666 5.33344C54.6666 5.66547 54.5999 5.99875 54.4707 6.32547C54.328 6.6775 54.3439 7.07609 54.5147 7.41609C54.6841 7.75609 54.9907 8.00813 55.36 8.10813C56.5215 8.42281 57.3333 9.47484 57.3333 10.6667C57.3333 11.3227 57.08 11.96 56.6227 12.46C56.276 12.8373 56.1774 13.38 56.3668 13.8559C56.5574 14.3319 57.0027 14.6559 57.5147 14.6906C58.908 14.7866 60 15.9466 60 17.3333C60 17.9892 59.7468 18.6266 59.2894 19.1266C58.9427 19.5039 58.8441 20.0466 59.0335 20.5225C59.2241 20.9984 59.6694 21.3225 60.1814 21.3572C61.5747 21.4531 62.6668 22.6131 62.6668 23.9998C62.6668 24.7398 62.3615 25.4319 61.8041 25.9466C61.4655 26.2625 61.3121 26.7319 61.4041 27.1866C61.4947 27.6413 61.8147 28.0159 62.2508 28.1759C63.2975 28.5613 64.0002 29.5627 64.0002 30.6666C64.0002 31.4025 64.5961 31.9998 65.3335 31.9998C66.0708 31.9998 66.6668 31.4025 66.6668 30.6666C66.6668 29.0425 65.9135 27.5319 64.6882 26.5372C65.1096 25.7678 65.3335 24.9025 65.3335 23.9998C65.3335 21.9145 64.1068 20.0825 62.3175 19.2158C62.5469 18.6184 62.6669 17.9811 62.6669 17.3331C62.6669 15.2478 61.4402 13.4158 59.651 12.5491C59.8804 11.9517 60.0004 11.3144 60.0004 10.6664C60.0004 8.72234 58.931 6.96641 57.2857 6.03703C57.3177 5.80375 57.3336 5.56906 57.3336 5.33297C57.333 2.39203 54.9411 0 51.9997 0C49.0583 0 46.6664 2.39203 46.6664 5.33328C46.6664 5.56922 46.6824 5.80391 46.7144 6.03734C45.0691 6.96672 43.9997 8.72266 43.9997 10.6667C43.9997 11.3147 44.1197 11.952 44.3491 12.5494C42.5597 13.4161 41.3332 15.248 41.3332 17.3334C41.3332 17.9814 41.4532 18.6188 41.6825 19.2161C39.8932 20.0828 38.6666 21.9147 38.6666 24.0002C38.6666 24.9028 38.8907 25.7681 39.3119 26.5375C38.0864 27.532 37.333 29.0427 37.333 30.6667Z" fill="#D4C17F"/>
<path d="M50.1582 18.5614C50.8355 18.8414 51.6155 18.5188 51.8996 17.8414C51.9249 17.7774 51.9622 17.7067 51.9996 17.6374C52.0369 17.7041 52.0716 17.7733 52.0969 17.836C52.3076 18.3533 52.8063 18.668 53.3329 18.668C53.5008 18.668 53.6702 18.636 53.8341 18.568C54.5168 18.2921 54.8462 17.5133 54.5688 16.8321C54.4208 16.4707 53.6076 14.6667 51.9994 14.6667C50.3915 14.6667 49.578 16.4708 49.4301 16.8321C49.1541 17.5107 49.4808 18.2814 50.1582 18.5614Z" fill="#D4C17F"/>
<path d="M78.6667 77.3333H57.3333C56.5959 77.3333 56 77.9306 56 78.6665C56 79.4025 56.5959 79.9998 57.3333 79.9998H78.6666C79.4039 79.9998 79.9998 79.4025 79.9998 78.6665C79.9998 77.9306 79.4041 77.3333 78.6667 77.3333Z" fill="#D4C17F"/>
<path d="M78.667 58.6667H66.667V57.3334C66.667 56.5975 66.0711 56.0001 65.3337 56.0001C64.5964 56.0001 64.0004 56.5975 64.0004 57.3334V58.6667H26.667V57.3334C26.667 56.5975 26.0697 56.0001 25.3337 56.0001C24.5978 56.0001 24.0004 56.5975 24.0004 57.3334V58.6667H12.0003C11.2643 58.6667 10.667 59.264 10.667 60V65.3332C10.667 66.0692 11.2643 66.6665 12.0003 66.6665H16.0003V73.3333C16.0003 74.0692 16.5976 74.6665 17.3336 74.6665C18.0695 74.6665 18.6668 74.0692 18.6668 73.3333V66.6665H72.0003V73.3333C72.0003 74.0692 72.5962 74.6665 73.3336 74.6665C74.0709 74.6665 74.6668 74.0692 74.6668 73.3333V66.6665H78.6668C79.4042 66.6665 80.0001 66.0692 80.0001 65.3332V60C80.0003 59.264 79.4043 58.6667 78.667 58.6667ZM77.3336 64H13.3336V61.3332H77.3336V64Z" fill="#D4C17F"/>
<path d="M19.9998 77.3333H7.99984V22.6668C7.99984 21.9308 7.4025 21.3335 6.66656 21.3335C5.93063 21.3335 5.33328 21.9308 5.33328 22.6668V77.3335H1.33328C0.597344 77.3335 0 77.9308 0 78.6668C0 79.4027 0.597187 80.0001 1.33313 80.0001H19.9998C20.7358 80.0001 21.3331 79.4027 21.3331 78.6668C21.3331 77.9308 20.7358 77.3333 19.9998 77.3333Z" fill="#D4C17F"/>
<path d="M52 77.3333H49.3333C48.5959 77.3333 48 77.9306 48 78.6665C48 79.4025 48.5959 79.9998 49.3333 79.9998H52C52.7373 79.9998 53.3333 79.4025 53.3333 78.6665C53.3333 77.9306 52.7373 77.3333 52 77.3333Z" fill="#D4C17F"/>
<path d="M41.3336 77.3333H28.0003C27.2643 77.3333 26.667 77.9306 26.667 78.6665C26.667 79.4025 27.2643 80 28.0003 80H41.3336C42.0709 80 42.6668 79.4026 42.6668 78.6667C42.6668 77.9308 42.0709 77.3333 41.3336 77.3333Z" fill="#D4C17F"/>
</svg>
