<svg width="80" height="80" viewBox="0 0 80 80" fill="none" xmlns="http://www.w3.org/2000/svg">
<path d="M57.3336 74.6667H20.0003C19.2643 74.6667 18.667 75.2641 18.667 76V78.6668C18.667 79.4027 19.2643 80 20.0003 80C20.7362 80 21.3336 79.4027 21.3336 78.6668V77.3335H57.3336C58.0695 77.3335 58.6668 76.7361 58.6668 76.0002C58.6668 75.2642 58.0696 74.6667 57.3336 74.6667Z" fill="#D4C17F"/>
<path d="M29.333 33.3333C29.333 34.0692 29.9304 34.6666 30.6663 34.6666H35.9997C36.7357 34.6666 37.333 34.0692 37.333 33.3333V25.3333C37.333 24.5973 36.7357 24 35.9997 24H30.6664C29.9305 24 29.3332 24.5973 29.3332 25.3333V33.3333H29.333ZM31.9997 26.6667H34.6664V32H31.9997V26.6667Z" fill="#D4C17F"/>
<path d="M17.3333 16H1.33328C0.597344 16 0 16.5973 0 17.3333V44C0 44.7359 0.597344 45.3333 1.33328 45.3333C2.06922 45.3333 2.66656 44.7359 2.66656 44V18.6667H17.3333C18.0692 18.6667 18.6666 18.0694 18.6666 17.3334C18.6666 16.5975 18.0694 16 17.3333 16Z" fill="#D4C17F"/>
<path d="M64 65.3333C64 66.0692 64.5973 66.6666 65.3333 66.6666H70.6666C71.4025 66.6666 71.9998 66.0692 71.9998 65.3333V57.3333C71.9998 56.5973 71.4025 56 70.6666 56H65.3333C64.5973 56 64 56.5973 64 57.3333V65.3333ZM66.6667 58.6667H69.3334V64H66.6667V58.6667Z" fill="#D4C17F"/>
<path d="M6.66672 48C0.0759375 48 0 65.16 0 65.3333C0 68.5533 2.29469 71.2453 5.33328 71.8653V78.6667C5.33328 79.4027 5.93062 80 6.66656 80C7.4025 80 7.99984 79.4027 7.99984 78.6667V71.8653C11.0384 71.2453 13.3331 68.5533 13.3331 65.3333C13.3333 65.16 13.2573 48 6.66672 48ZM6.66672 69.3333C4.46141 69.3333 2.66672 67.5386 2.66672 65.3333C2.66672 58.6906 4.45078 50.6666 6.66672 50.6666C8.88266 50.6666 10.6667 58.6906 10.6667 65.3333C10.6667 67.5386 8.87203 69.3333 6.66672 69.3333Z" fill="#D4C17F"/>
<path d="M14.6667 40H9.33328C8.59734 40 8 40.5973 8 41.3333V44C8 44.7359 8.59734 45.3333 9.33328 45.3333C10.0692 45.3333 10.6666 44.7359 10.6666 44V42.6667H13.3333V49.3334C13.3333 50.0694 13.9306 50.6667 14.6666 50.6667C15.4025 50.6667 15.9998 50.0694 15.9998 49.3334V41.3334C16 40.5973 15.4027 40 14.6667 40Z" fill="#D4C17F"/>
<path d="M65.3333 34.6667H70.6666C71.4025 34.6667 71.9998 34.0693 71.9998 33.3334V25.3334C71.9998 24.5975 71.4025 24.0001 70.6666 24.0001H65.3333C64.5973 24.0001 64 24.5975 64 25.3334V33.3334C64 34.0693 64.5973 34.6667 65.3333 34.6667ZM66.6667 26.6667H69.3334V32H66.6667V26.6667Z" fill="#D4C17F"/>
<path d="M14.6667 24H9.33328C8.59734 24 8 24.5973 8 25.3333V33.3333C8 34.0692 8.59734 34.6666 9.33328 34.6666H14.6666C15.4025 34.6666 15.9998 34.0692 15.9998 33.3333V25.3333C16 24.5973 15.4027 24 14.6667 24ZM13.3333 32H10.6667V26.6667H13.3334V32H13.3333Z" fill="#D4C17F"/>
<path d="M42.667 33.3333C42.667 34.0692 43.2643 34.6666 44.0003 34.6666H49.3336C50.0695 34.6666 50.6668 34.0692 50.6668 33.3333V25.3333C50.6668 24.5973 50.0695 24 49.3336 24H44.0003C43.2643 24 42.667 24.5973 42.667 25.3333V33.3333ZM45.3336 26.6667H48.0003V32H45.3336V26.6667Z" fill="#D4C17F"/>
<path d="M78.6663 16H62.6663C61.9303 16 61.333 16.5973 61.333 17.3333C61.333 18.0692 61.9303 18.6666 62.6663 18.6666H77.333V72.2453C76.9144 72.0959 76.4704 72 75.9997 72C75.7691 72 75.5397 72.02 75.3144 72.06C74.3944 70.4026 72.6438 69.3333 70.6664 69.3333C68.6891 69.3333 66.9385 70.4026 66.0185 72.06C65.7932 72.02 65.5638 72 65.3332 72C63.1279 72 61.3332 73.7947 61.3332 76C61.3332 78.2053 63.1279 80 65.3332 80H75.9996C78.2049 80 79.9996 78.2053 79.9996 76V17.3333C79.9996 16.5973 79.4022 16 78.6663 16ZM75.9996 77.3333H65.3329C64.5982 77.3333 63.9996 76.7347 63.9996 76C63.9996 75.2653 64.5982 74.6667 65.3329 74.6667C65.5888 74.6667 65.8314 74.74 66.0555 74.8841C66.4208 75.1187 66.8769 75.1614 67.2796 74.9987C67.6822 74.8361 67.9796 74.4867 68.0769 74.0641C68.3583 72.8494 69.4236 72 70.6663 72C71.9089 72 72.9743 72.8494 73.2557 74.0641C73.353 74.4867 73.6504 74.8361 74.053 74.9987C74.4544 75.1614 74.9116 75.1187 75.2771 74.8841C76.145 74.3241 77.333 75.0094 77.333 76C77.3329 76.7347 76.7343 77.3333 75.9996 77.3333Z" fill="#D4C17F"/>
<path d="M44.0003 18.6667H49.3336C50.0695 18.6667 50.6668 18.0693 50.6668 17.3334V9.3334C50.6668 8.59747 50.0695 8.00012 49.3336 8.00012H44.0003C43.2643 8.00012 42.667 8.59747 42.667 9.3334V17.3334C42.667 18.0693 43.2643 18.6667 44.0003 18.6667ZM45.3336 10.6667H48.0003V16H45.3336V10.6667Z" fill="#D4C17F"/>
<path d="M42.667 49.3333C42.667 50.0692 43.2643 50.6666 44.0003 50.6666H49.3336C50.0695 50.6666 50.6668 50.0692 50.6668 49.3333V41.3333C50.6668 40.5973 50.0695 40 49.3336 40H44.0003C43.2643 40 42.667 40.5973 42.667 41.3333V49.3333ZM45.3336 42.6667H48.0003V48H45.3336V42.6667Z" fill="#D4C17F"/>
<path d="M30.6663 18.6667H35.9996C36.7355 18.6667 37.3329 18.0693 37.3329 17.3334V9.3334C37.3329 8.59747 36.7355 8.00012 35.9996 8.00012H30.6663C29.9304 8.00012 29.333 8.59747 29.333 9.3334V17.3334C29.3329 18.0693 29.9302 18.6667 30.6663 18.6667ZM31.9996 10.6667H34.6663V16H31.9996V10.6667Z" fill="#D4C17F"/>
<path d="M39.0537 64.3867C38.8137 64.64 38.667 64.9867 38.667 65.3334C38.667 65.6801 38.8137 66.0267 39.0537 66.2801C39.307 66.5201 39.6537 66.6668 40.0004 66.6668C40.3472 66.6668 40.6937 66.5201 40.9471 66.2801C41.1872 66.0268 41.3339 65.6801 41.3339 65.3334C41.3339 64.9867 41.1872 64.6401 40.9471 64.3867C40.4404 63.8932 39.5604 63.8932 39.0537 64.3867Z" fill="#D4C17F"/>
<path d="M29.333 49.3333C29.333 50.0692 29.9304 50.6666 30.6663 50.6666H35.9997C36.7357 50.6666 37.333 50.0692 37.333 49.3333V41.3333C37.333 40.5973 36.7357 40 35.9997 40H30.6664C29.9305 40 29.3332 40.5973 29.3332 41.3333V49.3333H29.333ZM31.9997 42.6667H34.6664V48H31.9997V42.6667Z" fill="#D4C17F"/>
<path d="M26.667 57.3333C26.667 58.0692 27.2643 58.6666 28.0003 58.6666H32.0003V70.6666C32.0003 71.4025 32.5976 71.9998 33.3336 71.9998C34.0695 71.9998 34.6668 71.4025 34.6668 70.6666V58.6666H45.3336V70.6666C45.3336 71.4025 45.9309 71.9998 46.6668 71.9998C47.4028 71.9998 48.0001 71.4025 48.0001 70.6666V58.6666H52.0001C52.7361 58.6666 53.3334 58.0692 53.3334 57.3333C53.3334 56.5973 52.7361 56 52.0001 56H28.0003C27.2643 56 26.667 56.5973 26.667 57.3333Z" fill="#D4C17F"/>
<path d="M64 49.3333C64 50.0692 64.5973 50.6666 65.3333 50.6666H70.6666C71.4025 50.6666 71.9998 50.0692 71.9998 49.3333V41.3333C71.9998 40.5973 71.4025 40 70.6666 40H65.3333C64.5973 40 64 40.5973 64 41.3333V49.3333ZM66.6667 42.6667H69.3334V48H66.6667V42.6667Z" fill="#D4C17F"/>
<path d="M57.3329 0H22.6663C21.9304 0 21.333 0.597344 21.333 1.33328V70.6666C21.333 71.4025 21.9304 71.9998 22.6663 71.9998C23.4022 71.9998 23.9996 71.4025 23.9996 70.6666V2.66656H55.9996V70.6666C55.9996 71.4025 56.5969 71.9998 57.3329 71.9998C58.0688 71.9998 58.6661 71.4025 58.6661 70.6666V1.33328C58.6663 0.597344 58.069 0 57.3329 0Z" fill="#D4C17F"/>
</svg>
