<svg width="80" height="62" viewBox="0 0 80 62" fill="none" xmlns="http://www.w3.org/2000/svg">
<path d="M20 59.0011H1.33328C0.595937 59.0011 0 59.5984 0 60.3344C0 61.0703 0.595937 61.6677 1.33328 61.6677H20C20.7373 61.6677 21.3333 61.0703 21.3333 60.3344C21.3333 59.5984 20.7373 59.0011 20 59.0011Z" fill="#D4C17F"/>
<path d="M15.9998 56.3318C24.8225 56.3318 31.9998 49.153 31.9998 40.3318C31.9998 35.9144 30.2384 31.8011 27.0398 28.7491C26.5092 28.2424 25.6625 28.2624 25.1545 28.7932C24.6466 29.3264 24.6666 30.1705 25.1986 30.6785C27.8639 33.2225 29.3333 36.6491 29.3333 40.3318C29.3333 47.6838 23.3519 53.665 16 53.665C8.64812 53.665 2.66672 47.6836 2.66672 40.3318C2.66672 32.9785 8.64812 26.9985 16 26.9985C16.7373 26.9985 17.3333 26.4011 17.3333 25.6652C17.3333 24.9278 16.7373 24.3319 16 24.3319C7.17734 24.3319 2.55111e-09 31.5093 2.55111e-09 40.3319C-0.000156247 49.153 7.17719 56.3318 15.9998 56.3318Z" fill="#D4C17F"/>
<path d="M22.6664 18.9983H23.3424L15.6397 37.701C14.3411 37.8783 13.333 38.9836 13.333 40.3316C13.333 41.8022 14.5289 42.9983 15.9997 42.9983C17.4704 42.9983 18.6664 41.8024 18.6664 40.3316C18.6664 39.721 18.4532 39.1663 18.1064 38.7156L25.6305 20.4463L34.0693 32.6983C34.4852 33.305 35.3133 33.4596 35.9225 33.041C36.5305 32.6224 36.6825 31.793 36.2639 31.1863L27.8693 18.9983H30.6666C32.8719 18.9983 34.6666 17.2036 34.6666 14.9983C34.6666 12.7916 32.8719 10.9983 30.6666 10.9983H22.6666C21.9293 10.9983 21.3333 11.5942 21.3333 12.3316V17.6649C21.333 18.4011 21.9291 18.9983 22.6664 18.9983ZM23.9997 13.665H30.6664C31.4024 13.665 31.9997 14.2624 31.9997 14.9983C31.9997 15.733 31.4024 16.3316 30.6664 16.3316H23.9997V13.665Z" fill="#D4C17F"/>
<path d="M62.6667 25.6649C62.6667 26.4009 63.2627 26.9982 64 26.9982C71.352 26.9982 77.3333 32.9782 77.3333 40.3315C77.3333 47.6835 71.3519 53.6648 64 53.6648C56.6481 53.6648 50.6667 47.6834 50.6667 40.3315C50.6667 36.3356 52.4361 32.5848 55.5241 30.0382C56.0908 29.5703 56.172 28.7303 55.7027 28.1623C55.2347 27.5956 54.3959 27.5117 53.8253 27.981C50.1239 31.0357 48 35.5357 48 40.3317C48 49.1529 55.1773 56.3317 64 56.3317C72.8227 56.3317 80 49.1529 80 40.3317C80 31.509 72.8227 24.3317 64 24.3317C63.2627 24.3317 62.6667 24.9276 62.6667 25.6649Z" fill="#D4C17F"/>
<path d="M41.3336 59.0011H28.0003C27.2629 59.0011 26.667 59.5984 26.667 60.3344C26.667 61.0703 27.2629 61.6677 28.0003 61.6677H41.3336C42.0709 61.6677 42.6668 61.0703 42.6668 60.3344C42.667 59.5984 42.0709 59.0011 41.3336 59.0011Z" fill="#D4C17F"/>
<path d="M41.3337 33.8544V29.665C42.0711 29.665 42.667 29.0676 42.667 28.3317C42.667 27.5944 42.0711 26.9984 41.3337 26.9984H38.667C37.9297 26.9984 37.3337 27.5944 37.3337 28.3317C37.3337 29.0676 37.9297 29.665 38.667 29.665V33.8544C36.3723 34.4503 34.667 36.5197 34.667 38.9984C34.667 41.4758 36.3723 43.5451 38.667 44.1425V48.3319C37.9297 48.3319 37.3337 48.9278 37.3337 49.6651C37.3337 50.4011 37.9297 50.9984 38.667 50.9984H41.3337C42.0711 50.9984 42.667 50.4011 42.667 49.6651C42.667 48.9278 42.0711 48.3319 41.3337 48.3319V44.1425C43.6284 43.5451 45.3337 41.4758 45.3337 38.9984C45.3337 36.5197 43.6284 34.4503 41.3337 33.8544ZM40.0004 41.665C38.5311 41.665 37.3337 40.469 37.3337 38.9983C37.3337 37.5276 38.5311 36.3315 40.0004 36.3315C41.4711 36.3315 42.6671 37.5275 42.6671 38.9983C42.6671 40.469 41.4711 41.665 40.0004 41.665Z" fill="#D4C17F"/>
<path d="M61.9449 38.6517C61.5689 39.1117 61.3328 39.6917 61.3328 40.3317C61.3328 41.8023 62.5302 42.9984 63.9996 42.9984C65.4689 42.9984 66.6663 41.8025 66.6663 40.3317C66.6663 39.0117 65.6996 37.9211 64.441 37.709L58.4236 21.665H67.9422C69.5381 21.665 70.4663 20.389 70.6408 19.2597L71.9728 12.593C72.0514 12.2009 71.9502 11.7944 71.6969 11.4862C71.4436 11.1769 71.0663 10.9983 70.6663 10.9983H58.6663C57.9289 10.9983 57.333 11.5942 57.333 12.3315C57.333 13.0675 57.9289 13.6648 58.6663 13.6648H69.0396L68.021 18.7662C68.001 18.8583 67.9436 18.9876 67.9424 18.9983H57.4238L53.2491 7.86358C53.2464 7.85827 53.2424 7.85561 53.2411 7.8503C53.2385 7.84498 53.2397 7.83967 53.2385 7.83561L50.5717 1.16889C50.2985 0.484828 49.5158 0.156859 48.8385 0.426234C48.1544 0.699515 47.8211 1.47561 48.0944 2.15951L50.5238 8.22748L45.5091 17.0034C45.1424 17.6422 45.365 18.4567 46.005 18.8222C46.213 18.9408 46.441 18.9981 46.665 18.9981C47.1291 18.9981 47.5783 18.7569 47.8236 18.3261L51.7489 11.4581L54.9569 20.014L44.7955 31.4447C44.3049 31.9953 44.3555 32.838 44.9061 33.3273C45.1594 33.554 45.4755 33.6647 45.7914 33.6647C46.1582 33.6647 46.5247 33.5126 46.7874 33.2167L56.0153 22.8367L61.9449 38.6517Z" fill="#D4C17F"/>
<path d="M78.6667 59.0011H57.3333C56.5959 59.0011 56 59.5984 56 60.3344C56 61.0703 56.5959 61.6677 57.3333 61.6677H78.6666C79.4039 61.6677 79.9998 61.0703 79.9998 60.3344C80 59.5984 79.4041 59.0011 78.6667 59.0011Z" fill="#D4C17F"/>
<path d="M52 59.0011H49.3333C48.5959 59.0011 48 59.5984 48 60.3344C48 61.0703 48.5959 61.6677 49.3333 61.6677H52C52.7373 61.6677 53.3333 61.0703 53.3333 60.3344C53.3333 59.5984 52.7373 59.0011 52 59.0011Z" fill="#D4C17F"/>
</svg>
