<svg width="80" height="80" viewBox="0 0 80 80" fill="none" xmlns="http://www.w3.org/2000/svg">
<path d="M53.3898 4.62187C53.5724 4.62187 53.7565 4.58452 53.9338 4.50452C54.3151 4.3339 54.7018 4.17249 55.0938 4.02453C55.7832 3.76187 56.1298 2.9925 55.8671 2.30453C55.6057 1.61516 54.8351 1.27391 54.1483 1.52984C53.7069 1.69781 53.271 1.87922 52.843 2.07125C52.171 2.37265 51.8698 3.16187 52.1724 3.8339C52.3938 4.32843 52.8791 4.62187 53.3898 4.62187Z" fill="#D4C17F"/>
<path d="M53.3334 33.5377C54.0708 33.5377 54.6667 32.9418 54.6667 32.2044V31.9738C54.6667 31.6232 54.6894 31.2791 54.7334 30.9405C54.8294 30.2099 54.3147 29.5405 53.5867 29.4446C52.8347 29.3487 52.1867 29.8632 52.0894 30.5926C52.0308 31.0432 52 31.5085 52 31.974V32.2046C52.0002 32.9418 52.5961 33.5377 53.3334 33.5377Z" fill="#D4C17F"/>
<path d="M46.6663 33.8672C47.4036 33.8672 47.9996 33.2698 47.9996 32.5339V31.1792C47.9996 30.4433 47.4036 29.8459 46.6663 29.8459C45.9289 29.8459 45.333 30.4433 45.333 31.1792V32.5339C45.333 33.2698 45.9289 33.8672 46.6663 33.8672Z" fill="#D4C17F"/>
<path d="M54.3227 12.7778C53.8933 13.0137 53.4733 13.2684 53.0694 13.5392C52.4574 13.9486 52.2921 14.7778 52.7014 15.3898C52.9588 15.7739 53.3814 15.9804 53.8108 15.9804C54.0667 15.9804 54.3241 15.9084 54.5508 15.7551C54.8934 15.5272 55.2467 15.3125 55.6094 15.1125C56.2534 14.7578 56.4894 13.9458 56.1347 13.3019C55.7786 12.6565 54.9692 12.4245 54.3227 12.7778Z" fill="#D4C17F"/>
<path d="M35.4106 12.6419C35.6627 13.0446 36.0959 13.266 36.54 13.266C36.7827 13.266 37.028 13.2006 37.2467 13.0619C37.8708 12.6699 38.06 11.8472 37.6681 11.2246C37.4161 10.8232 37.1548 10.4313 36.8802 10.0472C36.4522 9.44862 35.6216 9.30862 35.0202 9.73925C34.4202 10.1686 34.2828 11.0007 34.7108 11.5992C34.9545 11.9392 35.188 12.2872 35.4106 12.6419Z" fill="#D4C17F"/>
<path d="M59.7882 2.82191C59.8429 2.82191 59.9002 2.81785 59.9562 2.81129C60.3682 2.75926 60.7855 2.71926 61.2068 2.68988C61.9427 2.64051 62.4974 2.00582 62.4494 1.27129C62.4015 0.536605 61.7561 -0.0193316 61.0308 0.0298871C60.5561 0.060512 60.0868 0.107231 59.6229 0.165824C58.8922 0.257855 58.3735 0.924417 58.4669 1.6552C58.5508 2.32848 59.1255 2.82191 59.7882 2.82191Z" fill="#D4C17F"/>
<path d="M54.844 24.7218C54.344 25.2618 54.3747 26.1059 54.9134 26.6059C55.1722 26.8445 55.4961 26.9618 55.8214 26.9618C56.18 26.9618 56.5361 26.8191 56.8 26.5351C57.0773 26.2365 57.3826 25.9537 57.7079 25.6951C58.2853 25.2365 58.3812 24.3978 57.9226 23.8218C57.4653 23.2459 56.6253 23.1471 56.0493 23.6071C55.6187 23.9484 55.2134 24.3245 54.844 24.7218Z" fill="#D4C17F"/>
<path d="M42.7522 13.0619C42.9722 13.2005 43.2175 13.266 43.4602 13.266C43.9042 13.266 44.3375 13.0446 44.5895 12.6419C44.8122 12.2872 45.0455 11.9392 45.2895 11.5992C45.7175 11.0007 45.5802 10.1686 44.9802 9.73925C44.3788 9.30862 43.5481 9.44862 43.1202 10.0472C42.8455 10.4313 42.5828 10.8232 42.3322 11.2246C41.9403 11.8472 42.1295 12.6699 42.7522 13.0619Z" fill="#D4C17F"/>
<path d="M53.3333 39.9739C54.0706 39.9739 54.6666 39.3766 54.6666 38.6406V37.9739C54.6666 37.238 54.0706 36.6406 53.3333 36.6406C52.5959 36.6406 52 37.238 52 37.9739V38.6406C52 39.3766 52.5959 39.9739 53.3333 39.9739Z" fill="#D4C17F"/>
<path d="M46.6389 27.0911C46.7003 27.1005 46.7603 27.1044 46.8203 27.1044C47.4763 27.1044 48.0497 26.6191 48.1416 25.9497C48.1963 25.5391 48.2695 25.1338 48.3602 24.7338C48.5242 24.0152 48.0734 23.3018 47.3548 23.1391C46.6363 22.9765 45.9216 23.4258 45.7589 24.1444C45.6522 24.6204 45.5642 25.103 45.4975 25.5911C45.3989 26.3205 45.9109 26.9925 46.6389 27.0911Z" fill="#D4C17F"/>
<path d="M37.5613 17.1793C37.6946 17.5739 37.8146 17.9725 37.9254 18.3779C38.0868 18.9711 38.6254 19.3619 39.2107 19.3619C39.3266 19.3619 39.444 19.346 39.5613 19.3139C39.7266 19.2699 39.8707 19.1899 39.9999 19.0954C40.1293 19.19 40.2732 19.27 40.4385 19.3139C40.5559 19.346 40.6732 19.3619 40.7891 19.3619C41.3745 19.3619 41.9132 18.9713 42.0745 18.3779C42.1851 17.9725 42.3038 17.5738 42.4385 17.1793C42.6771 16.4819 42.3026 15.7246 41.6065 15.4872C40.9665 15.2686 40.2918 15.5819 39.9998 16.174C39.7077 15.5819 39.0331 15.2686 38.3931 15.4872C37.696 15.7246 37.3227 16.4819 37.5613 17.1793Z" fill="#D4C17F"/>
<path d="M47.7854 8.20848C48.096 8.20848 48.408 8.10051 48.6601 7.88176C48.976 7.60707 49.3001 7.34035 49.6307 7.08582C50.2147 6.63645 50.3227 5.80051 49.8747 5.21645C49.4254 4.63239 48.588 4.52176 48.0054 4.97239C47.6307 5.26036 47.2654 5.55911 46.9107 5.86973C46.3548 6.35239 46.296 7.19504 46.7801 7.75113C47.0427 8.05395 47.4133 8.20848 47.7854 8.20848Z" fill="#D4C17F"/>
<path d="M48.8214 17.5419C48.5281 17.9313 48.2508 18.334 47.9908 18.7472C47.5975 19.3699 47.7855 20.1939 48.4082 20.5872C48.6296 20.7246 48.8735 20.7913 49.1175 20.7913C49.5602 20.7913 49.9935 20.5713 50.2469 20.1686C50.4683 19.818 50.7028 19.4766 50.9522 19.1472C51.3949 18.5593 51.2775 17.7232 50.6896 17.2793C50.1002 16.8352 49.2641 16.9566 48.8214 17.5419Z" fill="#D4C17F"/>
<path d="M61.3025 10.6939C60.8092 10.7313 60.3239 10.7899 59.8451 10.8686C59.1184 10.9886 58.6265 11.6753 58.7465 12.4019C58.8533 13.0552 59.4172 13.5178 60.0598 13.5178C60.1318 13.5178 60.2039 13.5125 60.2772 13.5005C60.6839 13.4337 61.0931 13.3845 61.5078 13.3525C62.2425 13.2952 62.7918 12.6539 62.7345 11.9192C62.677 11.1858 62.0517 10.6313 61.3025 10.6939Z" fill="#D4C17F"/>
<path d="M66.2358 2.92045C66.6504 2.98717 67.0637 3.06576 67.4717 3.15514C67.569 3.17654 67.6637 3.18576 67.7584 3.18576C68.3717 3.18576 68.9225 2.7617 69.0598 2.13904C69.2172 1.41905 68.7625 0.708422 68.0425 0.551079C67.5839 0.449829 67.1225 0.36311 66.6545 0.288423C65.9278 0.168423 65.2451 0.668422 65.1292 1.39514C65.0131 2.12186 65.5078 2.80576 66.2358 2.92045Z" fill="#D4C17F"/>
<path d="M68.517 11.6525C68.057 11.4885 67.589 11.3419 67.1156 11.2166C66.4076 11.0325 65.6756 11.4525 65.485 12.1645C65.297 12.8766 65.7209 13.6058 66.433 13.7952C66.8344 13.9005 67.2289 14.0231 67.6156 14.1631C67.765 14.2164 67.9156 14.2417 68.0662 14.2417C68.6129 14.2417 69.1262 13.9017 69.3209 13.3577C69.5704 12.6645 69.209 11.9005 68.517 11.6525Z" fill="#D4C17F"/>
<path d="M62.1245 21.3205C61.3885 21.3578 60.8218 21.9831 60.8592 22.7178C60.8951 23.4538 61.4724 24.0138 62.2565 23.9831C62.6659 23.9631 63.0885 23.9752 63.4938 24.0164C63.5406 24.0217 63.5871 24.0231 63.6326 24.0231C64.3085 24.0231 64.8859 23.5125 64.9579 22.8272C65.0326 22.0939 64.4993 21.4392 63.7673 21.3631C63.2271 21.3085 62.6685 21.2913 62.1245 21.3205Z" fill="#D4C17F"/>
<path d="M77.6816 8.87245C77.9442 9.16042 78.3056 9.30714 78.6669 9.30714C78.9883 9.30714 79.3095 9.19245 79.5655 8.95917C80.1095 8.46323 80.1481 7.61917 79.6522 7.07511C79.4922 6.90042 79.3295 6.72839 79.1655 6.56042C78.6481 6.03371 77.8055 6.02714 77.2802 6.54167C76.7522 7.05636 76.7455 7.90026 77.2587 8.42698C77.403 8.57245 77.5442 8.72182 77.6816 8.87245Z" fill="#D4C17F"/>
<path d="M57.3332 50.6404H41.3332C40.5959 50.6404 40 51.2377 40 51.9737C40 52.7096 40.5959 53.307 41.3332 53.307H57.3332C61.0718 53.307 63.9999 50.379 63.9999 46.6402V43.9735C63.9999 43.2376 63.404 42.6403 62.6666 42.6403H17.3333C16.5959 42.6403 16 43.2376 16 43.9735V46.6402C16 50.3788 18.928 53.307 22.6667 53.307H34.6667V59.9737C34.6667 60.7096 35.2626 61.3069 36 61.3069C36.7373 61.3069 37.3332 60.7096 37.3332 59.9737V51.9737C37.3332 51.2377 36.7373 50.6404 36 50.6404H22.6667C20.4226 50.6404 18.6667 48.8831 18.6667 46.6404V45.3071H61.3333V46.6404C61.3332 48.8831 59.5771 50.6404 57.3332 50.6404Z" fill="#D4C17F"/>
<path d="M70.647 31.4018C70.6602 31.5898 70.6669 31.7818 70.6669 31.9739C70.6669 32.7098 71.2629 33.3071 72.0002 33.3071C72.7376 33.3071 73.3335 32.7098 73.3335 31.9739C73.3335 31.7179 73.3241 31.4645 73.3055 31.2125C73.2535 30.4792 72.6296 29.9245 71.8815 29.9765C71.147 30.0298 70.5949 30.6671 70.647 31.4018Z" fill="#D4C17F"/>
<path d="M67.8309 24.0831C67.3442 24.6363 67.3976 25.4777 67.9495 25.9657C68.2589 26.2377 68.5481 26.5351 68.8095 26.8498C69.0748 27.1671 69.4536 27.3298 69.8362 27.3298C70.1362 27.3298 70.4389 27.2285 70.6882 27.0218C71.2536 26.5498 71.3309 25.7098 70.8589 25.1432C70.5109 24.7245 70.1242 24.3273 69.7121 23.9645C69.1615 23.4792 68.3189 23.5298 67.8309 24.0831Z" fill="#D4C17F"/>
<path d="M41.3335 30.5657C41.3335 29.8298 40.7376 29.2324 40.0003 29.2324C39.2629 29.2324 38.667 29.8298 38.667 30.5657V32.0484C38.667 32.7843 39.2629 33.3816 40.0003 33.3816C40.7376 33.3816 41.3335 32.7843 41.3335 32.0484V30.5657Z" fill="#D4C17F"/>
<path d="M40.0003 36.6404C39.2629 36.6404 38.667 37.2377 38.667 37.9737V38.6404C38.667 39.3763 39.2629 39.9737 40.0003 39.9737C40.7376 39.9737 41.3335 39.3763 41.3335 38.6404V37.9737C41.3335 37.2377 40.7375 36.6404 40.0003 36.6404Z" fill="#D4C17F"/>
<path d="M45.333 38.6404C45.333 39.3763 45.9289 39.9737 46.6663 39.9737C47.4036 39.9737 47.9996 39.3763 47.9996 38.6404V37.9737C47.9996 37.2377 47.4036 36.6404 46.6663 36.6404C45.9289 36.6404 45.333 37.2377 45.333 37.9737V38.6404Z" fill="#D4C17F"/>
<path d="M41.3337 23.9739C41.3337 23.7632 41.3363 23.5553 41.343 23.3459C41.359 22.7765 41.011 22.2873 40.5124 22.0833C40.4618 22.0606 40.4045 22.0606 40.351 22.0447C40.251 22.0179 40.1563 21.9779 40.0484 21.9753C40.0351 21.9739 40.0231 21.9739 40.0084 21.9739C40.0057 21.9739 40.0031 21.9753 40.0004 21.9753C39.9977 21.9753 39.9951 21.9739 39.9924 21.9739C39.9777 21.9739 39.9657 21.9739 39.9524 21.9753C39.8445 21.9779 39.7484 22.0179 39.6498 22.0447C39.5965 22.0606 39.5378 22.0606 39.4884 22.0833C38.9898 22.2873 38.6417 22.7765 38.6578 23.3459C38.6645 23.5553 38.6671 23.7632 38.6671 23.9739V24.6406C38.6671 25.3765 39.2631 25.9739 40.0004 25.9739C40.7377 25.9739 41.3337 25.3765 41.3337 24.6406V23.9739Z" fill="#D4C17F"/>
<path d="M32 38.6404C32 39.3763 32.5959 39.9737 33.3333 39.9737C34.0706 39.9737 34.6666 39.3763 34.6666 38.6404V37.9737C34.6666 37.2377 34.0706 36.6404 33.3333 36.6404C32.5959 36.6404 32 37.2377 32 37.9737V38.6404Z" fill="#D4C17F"/>
<path d="M33.3333 33.8672C34.0706 33.8672 34.6666 33.2698 34.6666 32.5339V31.1792C34.6666 30.4433 34.0706 29.8459 33.3333 29.8459C32.5959 29.8459 32 30.4433 32 31.1792V32.5339C32 33.2698 32.5959 33.8672 33.3333 33.8672Z" fill="#D4C17F"/>
<path d="M28.0005 38.6404V37.9737C28.0005 37.2377 27.4046 36.6404 26.6673 36.6404C25.9299 36.6404 25.334 37.2377 25.334 37.9737V38.6404C25.334 39.3763 25.9299 39.9737 26.6673 39.9737C27.4046 39.9737 28.0005 39.3765 28.0005 38.6404Z" fill="#D4C17F"/>
<path d="M9.31214 27.0219C9.56151 27.2286 9.86276 27.3298 10.1642 27.3298C10.5468 27.3298 10.9256 27.1672 11.1909 26.8498C11.4523 26.5351 11.7415 26.2378 12.0509 25.9658C12.6029 25.4778 12.6562 24.6364 12.1695 24.0831C11.6842 23.5298 10.8415 23.4764 10.2881 23.9644C9.87604 24.327 9.48932 24.7244 9.14011 25.1431C8.66948 25.7098 8.74683 26.5498 9.31214 27.0219Z" fill="#D4C17F"/>
<path d="M73.3338 63.9739H45.3339V57.3072C45.3339 56.5712 44.738 55.9739 44.0006 55.9739C43.2633 55.9739 42.6673 56.5712 42.6673 57.3072V65.3071C42.6673 66.0431 43.2633 66.6404 44.0006 66.6404H72.0006V73.3071C72.0006 75.5124 70.2059 77.3071 68.0006 77.3071H12.0007C9.79538 77.3071 8.0007 75.5124 8.0007 73.3071V66.6404H38.778C39.5153 66.6404 40.1113 66.0431 40.1113 65.3071C40.1113 64.5712 39.5153 63.9739 38.778 63.9739H6.66726C5.92992 63.9739 5.33398 64.5712 5.33398 65.3071V73.3071C5.33398 76.9831 8.3246 79.9738 12.0007 79.9738H68.0006C71.6765 79.9738 74.6673 76.9832 74.6673 73.3071V65.3071C74.6671 64.5712 74.0712 63.9739 73.3338 63.9739Z" fill="#D4C17F"/>
<path d="M32 70.6404V73.3071C32 74.0431 32.5959 74.6404 33.3333 74.6404C34.0706 74.6404 34.6666 74.0431 34.6666 73.3071V70.6404C34.6666 69.9045 34.0706 69.3071 33.3333 69.3071C32.5959 69.3071 32 69.9045 32 70.6404Z" fill="#D4C17F"/>
<path d="M1.39328 25.9752C1.37734 25.9738 1.36125 25.9738 1.34531 25.9738C0.63203 25.9738 0.0385937 26.5405 0.0146875 27.2605C0.00531249 27.4978 0 27.7352 0 27.9738C0 28.7097 0.595937 29.307 1.33328 29.307C2.07062 29.307 2.66656 28.7097 2.66656 27.9738C2.66656 27.7658 2.67187 27.5605 2.67859 27.3538C2.7039 26.6178 2.12922 26.0005 1.39328 25.9752Z" fill="#D4C17F"/>
<path d="M7.15303 17.4139C7.45162 17.1259 7.7624 16.8512 8.0824 16.5898C8.65303 16.1231 8.73834 15.2831 8.27178 14.7139C7.80647 14.1445 6.96647 14.0565 6.39584 14.5245C6.0185 14.8339 5.65178 15.1578 5.30256 15.4965C4.77194 16.0072 4.75725 16.8512 5.26788 17.3819C5.52928 17.6525 5.8785 17.7886 6.22787 17.7886C6.561 17.7884 6.89569 17.6645 7.15303 17.4139Z" fill="#D4C17F"/>
<path d="M3.62817 19.6031C2.97083 19.2751 2.16676 19.539 1.8388 20.1978C1.6202 20.6325 1.41739 21.0792 1.23614 21.5337C0.962861 22.219 1.29614 22.9937 1.9788 23.267C2.14145 23.3323 2.30817 23.3629 2.47348 23.3629C3.00286 23.3629 3.50411 23.0456 3.71207 22.5243C3.86535 22.139 4.03614 21.7617 4.22145 21.3923C4.55207 20.7339 4.28676 19.9339 3.62817 19.6031Z" fill="#D4C17F"/>
<path d="M6.02958 5.56315C6.25489 5.56315 6.48427 5.5058 6.69364 5.3858C7.05505 5.17783 7.42161 4.98174 7.7963 4.79908C8.4563 4.47377 8.72833 3.67377 8.40427 3.01378C8.07895 2.35237 7.27755 2.08175 6.61896 2.40581C6.19224 2.61518 5.77364 2.83784 5.36302 3.07378C4.72568 3.44174 4.50568 4.25643 4.87365 4.89518C5.12037 5.32315 5.56958 5.56315 6.02958 5.56315Z" fill="#D4C17F"/>
<path d="M18.667 70.6404V73.3071C18.667 74.0431 19.2629 74.6404 20.0003 74.6404C20.7376 74.6404 21.3335 74.0431 21.3335 73.3071V70.6404C21.3335 69.9045 20.7376 69.3071 20.0003 69.3071C19.2629 69.3071 18.667 69.9045 18.667 70.6404Z" fill="#D4C17F"/>
<path d="M78.0217 23.2671C78.7043 22.9939 79.0376 22.2192 78.7643 21.5339C78.5829 21.0792 78.3803 20.6325 78.1617 20.1979C77.8323 19.5393 77.0311 19.2765 76.3723 19.6032C75.7137 19.9339 75.4482 20.7339 75.779 21.3926C75.9643 21.762 76.135 22.1393 76.2884 22.5246C76.4964 23.046 76.9978 23.3632 77.5257 23.3632C77.6923 23.3631 77.859 23.3324 78.0217 23.2671Z" fill="#D4C17F"/>
<path d="M79.985 27.2604C79.961 26.523 79.3077 25.9324 78.6064 25.9751C77.8705 26.0004 77.2958 26.6177 77.3211 27.3537C77.3278 27.5604 77.3331 27.7657 77.3331 27.9737C77.3331 28.7096 77.9291 29.307 78.6664 29.307C79.4038 29.307 79.9997 28.7096 79.9997 27.9737C79.9997 27.7351 79.9942 27.4977 79.985 27.2604Z" fill="#D4C17F"/>
<path d="M74.6356 3.07389C74.2262 2.83795 73.8077 2.6153 73.3809 2.40592C72.725 2.08327 71.9209 2.35389 71.5956 3.01389C71.2716 3.67389 71.5436 4.47389 72.2036 4.7992C72.5783 4.98185 72.945 5.17795 73.305 5.38592C73.5156 5.50592 73.745 5.56326 73.9691 5.56326C74.4305 5.56326 74.8797 5.32326 75.1264 4.89529C75.4942 4.25654 75.2742 3.44186 74.6356 3.07389Z" fill="#D4C17F"/>
<path d="M61.3335 73.3071V70.6404C61.3335 69.9045 60.7376 69.3071 60.0003 69.3071C59.2629 69.3071 58.667 69.9045 58.667 70.6404V73.3071C58.667 74.0431 59.2629 74.6404 60.0003 74.6404C60.7376 74.6404 61.3335 74.0431 61.3335 73.3071Z" fill="#D4C17F"/>
<path d="M48.0005 73.3071V70.6404C48.0005 69.9045 47.4046 69.3071 46.6673 69.3071C45.9299 69.3071 45.334 69.9045 45.334 70.6404V73.3071C45.334 74.0431 45.9299 74.6404 46.6673 74.6404C47.4044 74.6404 48.0005 74.0431 48.0005 73.3071Z" fill="#D4C17F"/>
<path d="M73.604 14.5245C73.0319 14.0565 72.192 14.1445 71.728 14.7139C71.2613 15.2833 71.3466 16.1233 71.916 16.5898C72.2374 16.8512 72.548 17.1258 72.8466 17.4139C73.104 17.6645 73.4387 17.7886 73.7719 17.7886C74.1213 17.7886 74.4693 17.6526 74.7319 17.3819C75.2426 16.8512 75.2279 16.0072 74.6973 15.4965C74.348 15.1578 73.9813 14.8339 73.604 14.5245Z" fill="#D4C17F"/>
<path d="M8.11902 29.9765C7.35762 29.9259 6.74699 30.4791 6.69371 31.2124C6.67637 31.4644 6.66699 31.7177 6.66699 31.9738C6.66699 32.7097 7.26293 33.3071 8.00027 33.3071C8.73761 33.3071 9.33355 32.7097 9.33355 31.9738C9.33355 31.7818 9.34027 31.5898 9.35355 31.4018C9.40574 30.6671 8.85371 30.0298 8.11902 29.9765Z" fill="#D4C17F"/>
<path d="M26.4131 29.4445C25.6851 29.5405 25.1705 30.2098 25.2664 30.9405C25.3105 31.2791 25.3331 31.6231 25.3331 31.9737V32.2044C25.3331 32.9417 25.929 33.5377 26.6664 33.5377C27.4037 33.5377 27.9997 32.9417 27.9997 32.2044V31.9737C27.9997 31.5084 27.9703 31.0431 27.9103 30.5923C27.8131 29.8631 27.157 29.3472 26.4131 29.4445Z" fill="#D4C17F"/>
<path d="M24.9069 4.02453C25.2989 4.17249 25.6855 4.3339 26.0669 4.50452C26.2443 4.58452 26.4283 4.62187 26.611 4.62187C27.1204 4.62187 27.6069 4.32859 27.8283 3.8339C28.131 3.16187 27.8297 2.3725 27.1577 2.07125C26.7297 1.87922 26.2936 1.69797 25.8524 1.52984C25.1683 1.27391 24.395 1.61516 24.1338 2.30453C23.871 2.9925 24.2175 3.76187 24.9069 4.02453Z" fill="#D4C17F"/>
<path d="M24.3906 15.1125C24.752 15.3125 25.1065 15.5272 25.4492 15.7551C25.6771 15.9084 25.9332 15.9804 26.1892 15.9804C26.6185 15.9804 27.0412 15.7737 27.2985 15.3898C27.7079 14.7778 27.5426 13.9486 26.9306 13.5392C26.5253 13.2686 26.1065 13.0139 25.6773 12.7778C25.0306 12.4245 24.2214 12.6565 23.8653 13.3019C23.5106 13.9458 23.7465 14.7578 24.3906 15.1125Z" fill="#D4C17F"/>
<path d="M1.33352 9.30715C1.69493 9.30715 2.05618 9.16043 2.31883 8.87247C2.45617 8.72184 2.59758 8.57247 2.74149 8.42716C3.25477 7.90044 3.2468 7.05653 2.72008 6.54185C2.19602 6.02716 1.35336 6.03654 0.834772 6.5606C0.67071 6.72857 0.508054 6.9006 0.348055 7.07528C-0.147882 7.61935 -0.109288 8.46325 0.434773 8.95934C0.690866 9.19247 1.01212 9.30715 1.33352 9.30715Z" fill="#D4C17F"/>
<path d="M22.2916 25.6952C22.6169 25.9537 22.9223 26.2366 23.1996 26.5352C23.4637 26.8192 23.8196 26.9619 24.1782 26.9619C24.5022 26.9619 24.8276 26.8445 25.0862 26.6059C25.6249 26.1059 25.6555 25.2619 25.1555 24.7219C24.7862 24.3245 24.3808 23.9486 23.9502 23.6072C23.3702 23.1486 22.5329 23.2458 22.0769 23.8219C21.6183 24.3978 21.7143 25.2366 22.2916 25.6952Z" fill="#D4C17F"/>
<path d="M29.7537 20.1684C30.0069 20.5711 30.4404 20.7911 30.883 20.7911C31.1271 20.7911 31.371 20.7243 31.5924 20.587C32.2151 20.1937 32.403 19.3696 32.0097 18.747C31.7483 18.3337 31.471 17.9311 31.1791 17.5417C30.7351 16.9564 29.9005 16.835 29.3112 17.279C28.7232 17.7231 28.6058 18.559 29.0485 19.147C29.2976 19.4765 29.5322 19.8178 29.7537 20.1684Z" fill="#D4C17F"/>
<path d="M30.3698 7.08582C30.7004 7.34051 31.0245 7.60723 31.3404 7.88176C31.5925 8.10176 31.9045 8.20848 32.2151 8.20848C32.5872 8.20848 32.9578 8.05379 33.2204 7.75113C33.7045 7.1952 33.6457 6.35254 33.0898 5.86973C32.7351 5.55911 32.3698 5.26036 31.9951 4.97239C31.4125 4.52176 30.5765 4.63239 30.1258 5.21645C29.6778 5.80051 29.7859 6.6366 30.3698 7.08582Z" fill="#D4C17F"/>
<path d="M12.2415 3.18582C12.3362 3.18582 12.4309 3.17645 12.5269 3.1552C12.9362 3.06582 13.3495 2.98723 13.7642 2.92051C14.4922 2.80582 14.9868 2.12192 14.8709 1.3952C14.7562 0.668483 14.075 0.167234 13.3456 0.288483C12.8776 0.363171 12.415 0.449889 11.9576 0.551139C11.2376 0.708483 10.783 1.41911 10.9403 2.1391C11.0775 2.76192 11.6283 3.18582 12.2415 3.18582Z" fill="#D4C17F"/>
<path d="M18.7935 2.68987C19.2149 2.71925 19.6321 2.75925 20.0442 2.81128C20.1001 2.818 20.1574 2.8219 20.2121 2.8219C20.8748 2.8219 21.4495 2.32862 21.5334 1.65519C21.6267 0.924562 21.1081 0.257844 20.3774 0.165813C19.9134 0.107219 19.4442 0.0605007 18.9707 0.0298758C18.2521 -0.0234054 17.5987 0.536593 17.5507 1.27128C17.5029 2.00581 18.0574 2.6405 18.7935 2.68987Z" fill="#D4C17F"/>
<path d="M32.6454 23.1392C31.9268 23.3018 31.476 24.0151 31.6387 24.7338C31.7307 25.1338 31.8027 25.5391 31.8587 25.9498C31.9507 26.6191 32.5227 27.1044 33.1801 27.1044C33.2401 27.1044 33.3001 27.1004 33.3601 27.0912C34.0894 26.9926 34.6015 26.3205 34.5027 25.5912C34.436 25.1032 34.348 24.6205 34.2413 24.1445C34.0787 23.4271 33.3601 22.9777 32.6454 23.1392Z" fill="#D4C17F"/>
<path d="M11.9333 14.2419C12.0827 14.2419 12.2347 14.2165 12.3839 14.1633C12.7707 14.0233 13.1654 13.9006 13.5666 13.7953C14.2786 13.6059 14.7025 12.8767 14.5146 12.1647C14.3252 11.4526 13.5946 11.0326 12.8839 11.2167C12.4107 11.342 11.9425 11.4887 11.4825 11.6526C10.7905 11.9006 10.4293 12.6647 10.6785 13.3579C10.8733 13.9019 11.3866 14.2419 11.9333 14.2419Z" fill="#D4C17F"/>
<path d="M18.4925 13.3525C18.9072 13.3845 19.3166 13.4339 19.7231 13.5004C19.7964 13.5125 19.8685 13.5178 19.9405 13.5178C20.5819 13.5178 21.1472 13.0551 21.2538 12.4018C21.3738 11.6751 20.8817 10.9886 20.1552 10.8686C19.6766 10.79 19.1911 10.7312 18.6978 10.6939C17.9725 10.6298 17.3232 11.1845 17.2658 11.9192C17.2086 12.6539 17.7578 13.2951 18.4925 13.3525Z" fill="#D4C17F"/>
<path d="M16.3684 24.0231C16.4137 24.0231 16.4605 24.0217 16.507 24.0164C16.9123 23.975 17.335 23.9631 17.7444 23.9831C18.5111 24.0178 19.1058 23.4537 19.1417 22.7178C19.179 21.9831 18.6123 21.3578 17.8764 21.3204C17.3311 21.2911 16.7723 21.3084 16.2337 21.3631C15.5017 21.439 14.9684 22.0937 15.0431 22.8272C15.115 23.5125 15.6923 24.0231 16.3684 24.0231Z" fill="#D4C17F"/>
</svg>
